<svg width="64" height="64" viewBox="0 0 64 64" fill="none" xmlns="http://www.w3.org/2000/svg">
  <defs>
    <linearGradient id="accent" x1="10" y1="8" x2="54" y2="58" gradientUnits="userSpaceOnUse">
      <stop stop-color="#AAB5FF"/>
      <stop offset="1" stop-color="#7587FF"/>
    </linearGradient>
  </defs>
  <rect x="2" y="2" width="60" height="60" rx="18" fill="#0D0F14"/>
  <rect x="3" y="3" width="58" height="58" rx="17" stroke="url(#accent)" stroke-opacity="0.62" stroke-width="2"/>
  <path d="M16 22C16 17.5817 19.5817 14 24 14H29V21H24C23.4477 21 23 21.4477 23 22C23 22.5523 23.4477 23 24 23H27C32.5228 23 37 27.4772 37 33C37 38.5228 32.5228 43 27 43H16V36H27C28.6569 36 30 34.6569 30 33C30 31.3431 28.6569 30 27 30H24C19.5817 30 16 26.4183 16 22Z" fill="#F6F7FB"/>
  <path d="M39 14H46V25.5L54 14H62L51.5 29L63 43H54L46 33V43H39V14Z" fill="url(#accent)"/>
  <circle cx="15" cy="49" r="3" fill="#7587FF"/>
</svg>
